# xmcd
# 
# Track frame offsets:
#     150
#     36554
#     74141
#     115183
#     149835
#     160282
#     192207
#     227031
#     256571
# 
# Disc length: 3810
# 
# Revision: 0
# Processed by: cddbd v1.5.2PL0 Copyright (c) Steve Scherf et al.
# Submitted via: fre:ac v1.0.27
# 
DISCID=870ee009
DTITLE=Dino Saluzzi - Responsorium
DYEAR=2001
DGENRE=Contemporary Jazz
TTITLE0=A mi hermano Celso
TTITLE1=Monica
TTITLE2=Responso por la muerte de Cruz
TTITLE3=Dele..., Don!!
TTITLE4=Reprise: Los hijos de Fierro
TTITLE5=La pequena historia de ...!
TTITLE6=Cuchara
TTITLE7=Vienen del sur los recuerdos.
TTITLE8=Pampeana "Mapu"
EXTD=YEAR: 2003
EXTT0=
EXTT1=
EXTT2=
EXTT3=
EXTT4=
EXTT5=
EXTT6=
EXTT7=
EXTT8=
PLAYORDER=
